<svg id="Layer_1" enable-background="new 0 0 512 512" height="512" viewBox="0 0 512 512" width="512" xmlns="http://www.w3.org/2000/svg"><g><g><g><circle cx="256" cy="256" fill="#fed402" r="256"/></g></g><g><g><path d="m351.986 380.53h-237.985c-17.805 0-32.239-14.434-32.239-32.239 0-17.805 14.434-32.239 32.239-32.239h237.985c17.805 0 32.239 14.434 32.239 32.239 0 17.805-14.434 32.239-32.239 32.239z" fill="#0091c8"/></g><g><path d="m375.509 183.841 16.591-16.591 16.591 16.591 16.591-16.591.909.909v-79.742c0-21.901-17.754-39.656-39.656-39.656h-112.99v137.831h66.03l19.343-19.343z" fill="#afe6ff"/></g><g><path d="m339.575 186.593 19.343-19.343 10.23 10.23v-89.063c0-18.034 12.042-33.246 28.521-38.06-3.534-1.032-7.268-1.596-11.135-1.596h-112.989v137.831h66.03z" fill="#94deff"/></g><g><path d="m344.569 359.531h-223.483c-5.769 0-10.446-4.677-10.446-10.446s4.677-10.446 10.446-10.446h223.484c5.769 0 10.446 4.677 10.446 10.446-.001 5.769-4.677 10.446-10.447 10.446z" fill="#0073aa"/></g><g><path d="m384.225 48.761h-223.484c-21.901 0-39.656 17.754-39.656 39.656v260.668h223.483v-260.668c.001-21.901 17.755-39.656 39.657-39.656z" fill="#fff"/></g><g><path d="m192.694 48.761h-31.953c-21.901 0-39.656 17.754-39.656 39.656v260.668h31.953v-260.668c0-21.901 17.755-39.656 39.656-39.656z" fill="#e1faff"/></g><g><path d="m153.039 116.971h91.029v20.939h-91.029z" fill="#6ee1ff"/></g><g><path d="m281.331 116.971h31.974v20.939h-31.974z" fill="#fe646f"/></g><g><path d="m153.039 174.113h91.029v20.939h-91.029z" fill="#6ee1ff"/></g><g><path d="m281.331 174.113h31.974v20.939h-31.974z" fill="#fe646f"/></g><g><path d="m153.039 232.999h91.029v20.939h-91.029z" fill="#6ee1ff"/></g><g><path d="m281.331 232.999h31.974v20.939h-31.974z" fill="#fe646f"/></g></g><g><g><path d="m173.526 308.107h268.482v129.862h-268.482z" fill="#5d913f"/></g><g><path d="m426.334 323.781v98.515h-237.135v-98.515zm15.674-15.674h-268.482v129.862h268.482z" fill="#3d772a"/></g><g><path d="m173.526 345.008c4.286 2.997 9.498 4.76 15.125 4.76 14.6 0 26.436-11.836 26.436-26.436 0-5.671-1.791-10.92-4.831-15.225h-36.731v36.901z" fill="#3d772a"/></g><g><path d="m188.651 396.706c-5.627 0-10.839 1.763-15.125 4.76v36.504h37.013c2.87-4.229 4.548-9.332 4.548-14.827 0-14.601-11.836-26.437-26.436-26.437z" fill="#3d772a"/></g><g><path d="m397.588 323.332c0 14.6 11.836 26.436 26.436 26.436 6.947 0 13.266-2.684 17.984-7.067v-34.594h-39.589c-3.04 4.306-4.831 9.555-4.831 15.225z" fill="#3d772a"/></g><g><path d="m442.008 403.772c-4.718-4.383-11.036-7.067-17.984-7.067-14.6 0-26.436 11.836-26.436 26.436 0 5.496 1.678 10.599 4.548 14.827h39.872z" fill="#3d772a"/></g><g><circle cx="307.767" cy="373.038" fill="#3d772a" r="44.132"/></g><g><g><path d="m200.42 364.679h50.708v16.718h-50.708z" fill="#6eaa50"/></g></g><g><g><path d="m364.469 364.679h50.708v16.718h-50.708z" fill="#6eaa50"/></g></g><g><g><path d="m304.796 396.523c-4.701-.143-8.548-.999-12.251-2.708v-10.614l7.052-.499v4.132c0 1.282.213 1.781 1.424 2.208.997.357 2.351.57 3.775.57v-13.322c-6.553-1.781-12.465-4.559-12.465-12.821 0-7.124 4.914-11.896 12.465-12.965v-6.553h5.343v6.411c3.847.213 7.55 1.069 11.042 2.706v10.043l-6.982.428v-3.847c0-1.282-.213-1.781-1.424-2.208-.784-.213-1.709-.428-2.636-.499v12.536h.072c6.268 1.924 12.821 4.702 12.821 13.322 0 7.692-5.343 12.323-12.893 13.462v7.337h-5.343zm0-28.851v-10.257c-2.279.784-3.704 2.421-3.704 5.271.001 2.565 1.425 3.918 3.704 4.986zm5.343 10.33v11.112c2.423-.784 4.06-2.565 4.06-5.913 0-2.706-1.637-4.202-4.06-5.199z" fill="#6eaa50"/></g></g></g><g><g><path d="m208.819 342.432h268.482v129.862h-268.482z" fill="#97d729"/></g><g><path d="m461.627 358.106v98.515h-237.135v-98.515zm15.674-15.674h-268.482v129.862h268.482z" fill="#6eaa50"/></g><g><path d="m208.819 379.333c4.286 2.997 9.498 4.76 15.125 4.76 14.6 0 26.436-11.836 26.436-26.436 0-5.671-1.791-10.92-4.831-15.225h-36.731v36.901z" fill="#6eaa50"/></g><g><path d="m223.944 431.03c-5.627 0-10.839 1.763-15.125 4.76v36.504h37.013c2.87-4.229 4.548-9.332 4.548-14.827 0-14.601-11.836-26.437-26.436-26.437z" fill="#6eaa50"/></g><g><path d="m432.881 357.657c0 14.6 11.836 26.436 26.436 26.436 6.947 0 13.266-2.684 17.984-7.067v-34.594h-39.589c-3.04 4.305-4.831 9.554-4.831 15.225z" fill="#6eaa50"/></g><g><path d="m477.301 438.097c-4.718-4.383-11.036-7.067-17.984-7.067-14.6 0-26.436 11.836-26.436 26.436 0 5.496 1.678 10.599 4.548 14.827h39.872z" fill="#6eaa50"/></g><g><circle cx="343.06" cy="407.363" fill="#6eaa50" r="44.132"/></g><g><g><path d="m235.713 399.004h50.708v16.718h-50.708z" fill="#8bc727"/></g></g><g><g><path d="m399.762 399.004h50.708v16.718h-50.708z" fill="#8bc727"/></g></g><g><g><path d="m340.089 430.847c-4.701-.143-8.548-.999-12.251-2.708v-10.614l7.052-.499v4.132c0 1.282.213 1.781 1.424 2.208.997.357 2.351.57 3.775.57v-13.322c-6.553-1.781-12.465-4.559-12.465-12.821 0-7.124 4.914-11.896 12.465-12.965v-6.553h5.343v6.411c3.847.213 7.55 1.069 11.042 2.706v10.043l-6.982.428v-3.847c0-1.282-.213-1.781-1.424-2.208-.784-.213-1.709-.428-2.636-.499v12.536h.072c6.268 1.924 12.821 4.702 12.821 13.322 0 7.692-5.343 12.323-12.893 13.462v7.337h-5.343zm0-28.851v-10.256c-2.279.784-3.704 2.421-3.704 5.271 0 2.564 1.424 3.918 3.704 4.985zm5.343 10.33v11.112c2.423-.784 4.06-2.565 4.06-5.913 0-2.706-1.638-4.201-4.06-5.199z" fill="#97d729"/></g></g></g><g><g><circle cx="95.337" cy="448.695" fill="#fee45a" r="55.943"/></g><g><path d="m95.337 412.134c23.241 0 42.311 17.816 44.322 40.535.116-1.31.186-2.634.186-3.974 0-24.581-19.927-44.508-44.508-44.508s-44.508 19.927-44.508 44.508c0 1.34.07 2.663.186 3.974 2.011-22.719 21.081-40.535 44.322-40.535z" fill="#ffd23c"/></g><g><path d="m95.337 404.673c24.274 0 44.022 19.748 44.022 44.022s-19.748 44.022-44.022 44.022-44.022-19.748-44.022-44.022 19.748-44.022 44.022-44.022m0-11.921c-30.897 0-55.943 25.047-55.943 55.943s25.047 55.943 55.943 55.943 55.943-25.047 55.943-55.943c0-30.897-25.046-55.943-55.943-55.943z" fill="#faf58c"/></g><g><g><path d="m91.571 478.464c-5.959-.182-10.835-1.266-15.53-3.433v-13.454l8.939-.632v5.238c0 1.625.271 2.258 1.805 2.799 1.264.452 2.98.723 4.786.723v-16.887c-8.307-2.258-15.801-5.779-15.801-16.253 0-9.03 6.229-15.08 15.801-16.435v-8.307h6.773v8.127c4.876.271 9.571 1.355 13.997 3.431v12.731l-8.85.543v-4.876c0-1.625-.271-2.258-1.805-2.799-.993-.271-2.167-.543-3.342-.632v15.892h.091c7.946 2.439 16.253 5.961 16.253 16.887 0 9.751-6.773 15.621-16.344 17.065v9.301h-6.773zm0-36.572v-13.002c-2.89.993-4.695 3.069-4.695 6.682 0 3.251 1.806 4.967 4.695 6.32zm6.773 13.095v14.086c3.071-.993 5.147-3.251 5.147-7.495 0-3.431-2.076-5.327-5.147-6.591z" fill="#ffd23c"/></g></g></g></g></svg>