<svg id="Layer_1" enable-background="new 0 0 512 512" height="512" viewBox="0 0 512 512" width="512" xmlns="http://www.w3.org/2000/svg"><g><g><g><g><g><g id="XMLID_2364_"><g id="XMLID_2365_"><g id="XMLID_2366_"><g id="XMLID_2367_"><g id="XMLID_2368_"><g id="XMLID_2369_"><g id="XMLID_2370_"><g id="XMLID_2371_"><g id="XMLID_2372_"><g id="XMLID_2373_"><g id="XMLID_2374_"><g id="XMLID_2375_"><g id="XMLID_2376_"><g id="XMLID_2377_"><g id="XMLID_2378_"><circle cx="256" cy="256" fill="#007578" r="256"/></g></g></g></g></g></g></g></g></g></g></g></g></g></g></g></g></g></g></g><path d="m512 256c0-26.262-3.955-51.601-11.301-75.453l-109.169-109.169-271.06 383.085 38.514 38.514c29.92 12.263 62.679 19.023 97.016 19.023 141.385 0 256-114.615 256-256z" fill="#005457"/><g><path d="m365.263 48.054-27.945 23.324-26.268-23.324-27.944 23.324-26.268-23.324-27.944 23.324-26.268-23.324-27.944 23.324-26.268-23.324-27.944 23.324v383.085l134.286-.005 136.774.005v-383.085z" fill="#fff"/><path d="m311.056 48.051 26.257 23.327 27.945-23.327 26.268 23.327v383.08h-136.77v-404.668l2.087-1.739 26.258 23.327z" fill="#dbdbdb"/><path d="m270.075 182.143c-2.067-.731-4.178-1.492-6.287-2.284v-35.233c4.912 1.443 7.79 3.907 8.001 4.091l-.081-.074 12.049-13.062c-.45-.414-7.844-7.076-19.969-9.155v-15.637h-17.771v16.281c-.936.223-1.886.477-2.849.767-11.629 3.503-20.316 13.444-22.671 25.943-2.154 11.429 1.529 22.469 9.613 28.809 4.074 3.195 9.089 6.123 15.906 9.194v45.465c-5.572-.546-9.378-2.099-15.641-6.196l-7.436-4.864-9.729 14.871 7.436 4.865c9.91 6.483 16.773 8.568 25.371 9.159v16.45h17.771v-17.246c16.992-3.842 27.895-18.156 30.266-32.265 3.027-18.006-6.385-33.66-23.979-39.879zm-28.997-13.537c-2.801-2.196-4.024-6.725-3.118-11.535.766-4.064 3.275-8.881 8.056-11.306v26.122c-1.834-1.059-3.5-2.153-4.938-3.281zm35.45 50.472c-1.094 6.505-5.417 13.398-12.741 16.602v-36.91c.121.043.242.086.364.129 13.812 4.882 12.965 16.679 12.377 20.179z" fill="#474d54"/><path d="m254.756 110.789v160.746h9.031v-17.246c16.992-3.842 27.895-18.156 30.266-32.265 3.028-18.007-6.384-33.662-23.979-39.881-2.067-.731-4.178-1.492-6.287-2.283v-35.233c4.912 1.443 7.79 3.907 8.001 4.091l-.081-.074 12.049-13.062c-.45-.414-7.844-7.076-19.969-9.155v-15.637h-9.031zm9.396 88.11c13.811 4.882 12.964 16.68 12.377 20.18-1.094 6.505-5.417 13.398-12.741 16.602v-36.91c.121.042.242.085.364.128z" fill="#3a3a3a"/></g><g><g><path d="m168.621 308.513h174.759v30h-174.759z" fill="#9bda05"/></g></g><g><g><path d="m168.621 370.456h174.759v30h-174.759z" fill="#9bda05"/></g></g><g fill="#00a78e"><path d="m254.756 308.513h88.623v30h-88.623z"/><path d="m254.756 370.456h88.623v30h-88.623z"/></g></g></svg>